<svg width="0" height="0" class="hidden">
  <symbol xmlns="http://www.w3.org/2000/svg" viewBox="0 0 1024 1024" id="ant-design--twitter-outlined(1)">
    <path fill="currentColor" d="M928 254.3c-30.6 13.2-63.9 22.7-98.2 26.4a170.1 170.1 0 0 0 75-94a336.64 336.64 0 0 1-108.2 41.2A170.1 170.1 0 0 0 672 174c-94.5 0-170.5 76.6-170.5 170.6c0 13.2 1.6 26.4 4.2 39.1c-141.5-7.4-267.7-75-351.6-178.5a169.32 169.32 0 0 0-23.2 86.1c0 59.2 30.1 111.4 76 142.1a172 172 0 0 1-77.1-21.7v2.1c0 82.9 58.6 151.6 136.7 167.4a180.6 180.6 0 0 1-44.9 5.8c-11.1 0-21.6-1.1-32.2-2.6C211 652 273.9 701.1 348.8 702.7c-58.6 45.9-132 72.9-211.7 72.9c-14.3 0-27.5-.5-41.2-2.1C171.5 822 261.2 850 357.8 850C671.4 850 843 590.2 843 364.7c0-7.4 0-14.8-.5-22.2c33.2-24.3 62.3-54.4 85.5-88.2"></path>
  </symbol>
  <symbol fill="none" xmlns="http://www.w3.org/2000/svg" viewBox="0 0 24 24" id="Call">
    <path fill-rule="evenodd" clip-rule="evenodd" d="M11.5317 12.4724C15.5208 16.4604 16.4258 11.8467 18.9656 14.3848C21.4143 16.8328 22.8216 17.3232 19.7192 20.4247C19.3306 20.737 16.8616 24.4943 8.1846 15.8197C-0.493478 7.144 3.26158 4.67244 3.57397 4.28395C6.68387 1.17385 7.16586 2.58938 9.61449 5.03733C12.1544 7.5765 7.54266 8.48441 11.5317 12.4724Z" stroke="white" stroke-width="1.5" stroke-linecap="round" stroke-linejoin="round"></path>
    <path opacity="0.4" d="M14.353 6.04297C16.124 6.38697 17.508 7.77197 17.853 9.54297" stroke="white" stroke-width="1.5" stroke-linecap="round" stroke-linejoin="round"></path>
  </symbol>
  <symbol xmlns="http://www.w3.org/2000/svg" viewBox="0 0 32 32" id="carbon--location-filled">
    <path fill="currentColor" d="M16 2A11.013 11.013 0 0 0 5 13a10.889 10.889 0 0 0 2.216 6.6s.3.395.349.452L16 30l8.439-9.953c.044-.053.345-.447.345-.447l.001-.003A10.885 10.885 0 0 0 27 13A11.013 11.013 0 0 0 16 2m0 15a4 4 0 1 1 4-4a4.005 4.005 0 0 1-4 4"></path>
    <circle cx="16" cy="13" r="4" fill="none"></circle>
  </symbol>
  <symbol xmlns="http://www.w3.org/2000/svg" viewBox="0 0 20 20" id="dashicons--menu">
    <path fill="black" d="M3 15h14v-2H3zM3 5v2h14V5zm0 6h14V9H3z"></path>
  </symbol>
  <symbol xmlns="http://www.w3.org/2000/svg" viewBox="0 0 32 32" id="la--linkedin-in">
    <path fill="currentColor" d="M8.643 4A2.641 2.641 0 0 0 6 6.64C6 8.1 7.183 9.31 8.64 9.31c1.459 0 2.643-1.21 2.643-2.668A2.64 2.64 0 0 0 8.643 4m12.892 7c-2.219 0-3.488 1.16-4.098 2.314h-.064v-2.003H13V26h4.557v-7.271c0-1.916.144-3.768 2.515-3.768c2.337 0 2.371 2.185 2.371 3.889V26H27v-8.068C27 13.984 26.151 11 21.535 11m-15.172.31V26h4.56V11.31z"></path>
  </symbol>
 
  <symbol xmlns="http://www.w3.org/2000/svg" viewBox="0 0 24 24" id="material-symbols--mail">
    <path fill="currentColor" d="M4 20q-.825 0-1.412-.587T2 18V6q0-.825.588-1.412T4 4h16q.825 0 1.413.588T22 6v12q0 .825-.587 1.413T20 20zm8-7l8-5V6l-8 5l-8-5v2z"></path>
  </symbol>
  
  <symbol xmlns="http://www.w3.org/2000/svg" viewBox="0 0 20 20" id="pepicons-pop--menu">
    <path fill="black" fill-rule="evenodd" d="M2 8a1 1 0 0 1 1-1h10.308a1 1 0 1 1 0 2H3a1 1 0 0 1-1-1m0-4a1 1 0 0 1 1-1h14a1 1 0 1 1 0 2H3a1 1 0 0 1-1-1m0 8a1 1 0 0 1 1-1h14a1 1 0 1 1 0 2H3a1 1 0 0 1-1-1m0 4a1 1 0 0 1 1-1h10.308a1 1 0 1 1 0 2H3a1 1 0 0 1-1-1" clip-rule="evenodd"></path>
  </symbol>

</svg>


<svg class="icon">
  <use xlink:href="#ant-design--twitter-outlined(1)"></use>
</svg><svg class="icon">
  <use xlink:href="#Call"></use>
</svg><svg class="icon">
  <use xlink:href="#carbon--location-filled"></use>
</svg><svg class="icon">
  <use xlink:href="#dashicons--menu"></use>
</svg><svg class="icon">
  <use xlink:href="#la--linkedin-in"></use>
</svg><svg class="icon">
  <use xlink:href="#logo"></use>
</svg><svg class="icon">
  <use xlink:href="#material-symbols--mail"></use>
</svg>
<svg class="icon">
  <use xlink:href="#pepicons-pop--menu"></use>
</svg>

